<?xml version="1.0" encoding="UTF-8"?>
<!DOCTYPE svg PUBLIC "-//W3C//DTD SVG 1.1//EN" "http://www.w3.org/Graphics/SVG/1.1/DTD/svg11.dtd">
<svg version="1.1" xmlns="http://www.w3.org/2000/svg" xmlns:xlink="http://www.w3.org/1999/xlink" x="0" y="0" width="116.881" height="127.745" viewBox="0, 0, 116.881, 127.745">
  <g id="Layer_1" transform="translate(-275, -162.999)">
    <path d="M343.384,216.166 L343.009,216.125 L342.003,216.094 L340.906,216.16 L339.816,216.305 L338.749,216.502 L337.715,216.728 L336.252,217.077 L334.426,217.49 L333.235,217.692 L332.554,217.758 L331.89,217.773 L331.275,217.727 L330.702,217.612 L330.325,217.485 L330.091,217.382 L329.989,217.331 L330.04,217.356 L329.814,217.238 L329.428,217.01 L329.056,216.757 L328.679,216.469 L328.302,216.148 L327.924,215.796 L327.356,215.203 L326.628,214.326 L325.95,213.37 L325.324,212.341 L324.762,211.258 L324.274,210.137 L323.87,208.998 L323.56,207.861 L323.352,206.749 L323.269,205.974 L323.247,205.497 L323.248,205.02 L323.274,204.576 L323.323,204.172 L323.391,203.819 L323.47,203.527 L323.55,203.311 L323.549,203.339 L323.436,203.617 L323.595,203.251 L323.722,203.064 L323.753,203.091 L323.791,203.105 L323.874,203.064 L324.042,202.945 L324.317,202.748 L324.706,202.486 L325.205,202.177 L325.804,201.837 L326.492,201.48 L327.258,201.12 L328.089,200.765 L328.975,200.423 L329.907,200.099 L330.874,199.8 L331.87,199.529 L332.885,199.289 L333.913,199.083 L334.947,198.914 L335.979,198.784 L337.003,198.695 L338.014,198.649 L339.006,198.647 L339.97,198.691 L340.903,198.782 L341.799,198.921 L342.652,199.108 L343.457,199.345 L344.208,199.631 L344.9,199.966 L345.531,200.351 L345.79,200.54 L345.74,200.503 L345.952,200.668 L346.316,200.983 L346.661,201.323 L347.006,201.701 L347.348,202.117 L347.686,202.568 L348.02,203.055 L348.348,203.576 L348.669,204.129 L348.983,204.714 L349.445,205.655 L350.027,207.002 L350.567,208.439 L351.069,209.965 L351.529,211.569 L351.947,213.241 L352.319,214.971 L352.646,216.746 L352.925,218.557 L353.155,220.394 L353.336,222.245 L353.467,224.099 L353.545,225.946 L353.571,227.775 L353.545,229.573 L353.464,231.329 L353.331,233.029 L353.143,234.663 L352.904,236.212 L352.616,237.662 L352.376,238.644 L352.209,239.24 L352.029,239.824 L351.842,240.365 L351.654,240.858 L351.466,241.296 L351.286,241.674 L351.119,241.985 L350.975,242.22 L350.864,242.374 L350.8,242.44 L350.795,242.419 L350.858,242.32 L350.987,242.162 L351.225,241.94 L351.446,241.757 L350.757,242.308 L349.583,243.195 L348.481,243.964 L347.38,244.676 L346.278,245.333 L345.172,245.939 L344.062,246.496 L342.946,247.003 L341.824,247.464 L340.697,247.877 L339.566,248.244 L338.43,248.565 L337.292,248.841 L336.153,249.071 L335.013,249.256 L333.878,249.397 L332.747,249.495 L331.621,249.55 L330.503,249.563 L329.396,249.536 L328.299,249.469 L327.215,249.364 L326.146,249.222 L325.093,249.045 L324.057,248.834 L323.041,248.591 L322.045,248.317 L321.071,248.013 L320.121,247.683 L319.195,247.326 L318.294,246.946 L317.421,246.543 L317.006,246.339 L317.026,246.349 L316.642,246.153 L315.917,245.764 L314.874,245.153 L313.558,244.286 L312.329,243.367 L311.176,242.393 L310.095,241.366 L309.085,240.29 L308.143,239.165 L307.266,237.995 L306.452,236.783 L305.699,235.531 L305.005,234.242 L304.366,232.916 L303.782,231.559 L303.249,230.173 L302.765,228.759 L302.328,227.32 L301.936,225.859 L301.587,224.38 L301.277,222.883 L301.005,221.373 L300.769,219.851 L300.475,217.542 L300.187,214.455 L300.001,211.385 L299.896,208.342 L299.852,205.346 L299.848,203.883 L299.816,204.333 L299.924,203.561 L300.152,202.102 L300.4,200.71 L300.669,199.37 L300.959,198.079 L301.27,196.84 L301.599,195.653 L301.947,194.516 L302.312,193.433 L302.691,192.403 L303.084,191.427 L303.489,190.506 L303.903,189.641 L304.325,188.831 L304.751,188.076 L305.18,187.376 L305.61,186.729 L306.038,186.133 L306.465,185.586 L306.89,185.082 L307.316,184.616 L307.745,184.181 L308.182,183.772 L308.632,183.382 L309.1,183.007 L309.594,182.641 L310.118,182.281 L310.674,181.928 L311.269,181.579 L311.903,181.236 L312.577,180.901 L313.291,180.575 L313.613,180.437 L313.547,180.466 L314.234,180.177 L315.543,179.642 L316.813,179.14 L318.062,178.666 L319.292,178.216 L320.502,177.792 L321.693,177.393 L322.864,177.018 L324.017,176.666 L325.151,176.338 L326.267,176.032 L327.364,175.749 L328.444,175.487 L329.506,175.247 L330.551,175.027 L331.579,174.828 L332.59,174.648 L333.584,174.489 L335.059,174.282 L336.963,174.072 L338.79,173.933 L340.556,173.861 L342.262,173.85 L343.911,173.899 L345.502,174.003 L347.039,174.159 L348.523,174.363 L349.954,174.612 L351.335,174.903 L352.667,175.232 L353.951,175.595 L355.188,175.989 L356.381,176.411 L357.529,176.856 L358.635,177.322 L359.7,177.805 L360.725,178.301 L361.713,178.807 L362.663,179.32 L363.579,179.835 L364.46,180.349 L364.885,180.602 L364.873,180.595 L365.252,180.826 L365.969,181.287 L367.012,182.013 L368.343,183.046 L369.604,184.148 L370.803,185.322 L371.939,186.565 L373.014,187.876 L374.028,189.25 L374.979,190.685 L375.87,192.18 L376.7,193.73 L377.468,195.333 L378.176,196.987 L378.823,198.689 L379.41,200.435 L379.937,202.224 L380.404,204.051 L380.811,205.915 L381.159,207.812 L381.449,209.74 L381.68,211.695 L381.853,213.675 L381.968,215.676 L382.025,217.696 L382.026,219.732 L381.97,221.779 L381.858,223.837 L381.691,225.901 L381.469,227.968 L381.192,230.036 L380.861,232.1 L380.478,234.158 L380.042,236.207 L379.554,238.243 L379.015,240.262 L378.427,242.262 L377.789,244.239 L377.104,246.189 L376.372,248.11 L375.595,249.995 L374.773,251.844 L373.91,253.652 L373.006,255.416 L372.064,257.131 L371.085,258.794 L370.072,260.403 L369.026,261.954 L367.95,263.445 L366.846,264.872 L365.715,266.237 L364.558,267.538 L363.374,268.775 L362.164,269.949 L360.925,271.063 L359.654,272.117 L358.345,273.116 L356.996,274.06 L355.602,274.949 L354.154,275.784 L352.652,276.564 L351.091,277.286 L349.467,277.946 L347.781,278.54 L346.031,279.063 L345.188,279.282 L345.271,279.261 L344.581,279.428 L343.279,279.717 L341.324,280.085 L338.701,280.464 L336.075,280.719 L333.433,280.861 L330.782,280.895 L328.136,280.827 L325.501,280.664 L322.886,280.414 L320.298,280.083 L317.748,279.679 L315.241,279.21 L312.785,278.684 L310.387,278.108 L308.056,277.49 L305.796,276.838 L303.617,276.161 L301.524,275.466 L299.525,274.761 L297.626,274.055 L295.834,273.355 L294.156,272.67 L292.978,272.171 L292.233,271.847 L291.518,271.531 L290.835,271.224 L290.186,270.927 L289.573,270.641 L288.994,270.368 L288.452,270.107 L287.947,269.861 L287.48,269.63 L287.052,269.415 L286.664,269.218 L286.316,269.039 L286.01,268.879 L285.745,268.739 L285.524,268.621 L285.346,268.525 L285.214,268.452 L285.126,268.404 L285.085,268.38 L285.083,268.379 L285.083,268.379 C283.722,267.613 281.015,268.836 279.036,271.112 C277.057,273.388 276.557,275.854 277.917,276.621 L277.927,276.626 L277.98,276.656 L278.08,276.711 L278.225,276.791 L278.416,276.894 L278.651,277.019 L278.929,277.166 L279.249,277.333 L279.611,277.52 L280.015,277.725 L280.458,277.947 L280.941,278.186 L281.462,278.44 L282.021,278.708 L282.617,278.99 L283.249,279.284 L283.917,279.59 L284.618,279.906 L285.355,280.231 L286.125,280.566 L287.341,281.08 L289.067,281.785 L290.91,282.504 L292.865,283.231 L294.924,283.956 L297.083,284.672 L299.333,285.371 L301.671,286.044 L304.089,286.684 L306.581,287.281 L309.142,287.829 L311.766,288.318 L314.447,288.741 L317.18,289.088 L319.96,289.351 L322.782,289.522 L325.642,289.59 L328.533,289.548 L331.455,289.385 L334.405,289.09 L337.353,288.657 L339.566,288.236 L341.036,287.908 L341.729,287.74 L341.729,287.74 C341.757,287.733 341.784,287.726 341.812,287.718 L341.812,287.718 L343.001,287.402 L345.249,286.715 L347.474,285.914 L349.672,285.001 L351.842,283.977 L353.982,282.843 L356.086,281.604 L358.15,280.263 L360.168,278.825 L362.133,277.299 L364.04,275.689 L365.885,274.004 L367.664,272.253 L369.373,270.442 L371.011,268.578 L372.577,266.667 L374.071,264.714 L375.494,262.724 L376.846,260.7 L378.131,258.645 L379.347,256.562 L380.498,254.453 L381.583,252.322 L382.605,250.169 L383.565,247.996 L384.462,245.806 L385.298,243.601 L386.074,241.382 L386.79,239.152 L387.445,236.913 L388.041,234.666 L388.578,232.415 L389.055,230.161 L389.472,227.907 L389.83,225.655 L390.129,223.408 L390.367,221.166 L390.546,218.936 L390.664,216.716 L390.722,214.51 L390.719,212.322 L390.655,210.154 L390.53,208.006 L390.342,205.885 L390.093,203.79 L389.78,201.726 L389.405,199.694 L388.966,197.698 L388.463,195.74 L387.896,193.823 L387.264,191.95 L386.566,190.123 L385.802,188.346 L384.972,186.62 L384.074,184.95 L383.109,183.337 L382.075,181.785 L380.973,180.296 L379.801,178.875 L378.558,177.522 L377.245,176.242 L375.86,175.038 L374.411,173.918 L373.28,173.133 L372.507,172.637 L372.127,172.405 L372.127,172.405 C372.123,172.403 372.119,172.4 372.115,172.398 L372.115,172.398 L371.665,172.13 L370.743,171.593 L369.779,171.051 L368.773,170.51 L367.722,169.972 L366.625,169.442 L365.48,168.924 L364.287,168.423 L363.042,167.941 L361.745,167.485 L360.393,167.056 L358.987,166.661 L357.522,166.302 L355.999,165.984 L354.415,165.711 L352.769,165.487 L351.059,165.317 L349.284,165.205 L347.442,165.154 L345.531,165.169 L343.551,165.255 L341.499,165.415 L339.39,165.65 L337.765,165.88 L336.648,166.061 L335.512,166.263 L334.358,166.488 L333.184,166.736 L331.991,167.007 L330.779,167.302 L329.546,167.621 L328.294,167.965 L327.023,168.334 L325.732,168.729 L324.42,169.15 L323.089,169.598 L321.737,170.073 L320.365,170.575 L318.972,171.106 L317.559,171.664 L316.143,172.244 L315.453,172.534 L315.453,172.534 C315.431,172.544 315.409,172.553 315.387,172.563 L315.387,172.563 L314.757,172.838 L313.598,173.379 L312.444,173.968 L311.292,174.608 L310.146,175.301 L309.005,176.048 L307.877,176.851 L306.762,177.709 L305.667,178.621 L304.599,179.583 L303.563,180.59 L302.565,181.639 L301.609,182.723 L300.698,183.838 L299.835,184.979 L299.02,186.142 L298.253,187.326 L297.532,188.529 L296.855,189.75 L296.221,190.991 L295.626,192.252 L295.07,193.535 L294.551,194.84 L294.066,196.171 L293.614,197.528 L293.194,198.913 L292.804,200.329 L292.444,201.776 L292.114,203.256 L291.811,204.771 L291.537,206.321 L291.293,207.891 L291.184,208.667 L291.184,208.667 C291.162,208.823 291.151,208.973 291.152,209.117 L291.152,209.117 L291.157,210.643 L291.203,213.746 L291.314,216.924 L291.513,220.151 L291.818,223.392 L292.129,225.821 L292.382,227.443 L292.674,229.059 L293.007,230.664 L293.385,232.257 L293.81,233.832 L294.285,235.389 L294.812,236.923 L295.395,238.432 L296.036,239.911 L296.737,241.359 L297.502,242.771 L298.332,244.146 L299.232,245.479 L300.203,246.767 L301.248,248.007 L302.37,249.196 L303.571,250.33 L304.854,251.407 L306.221,252.423 L307.666,253.369 L308.804,254.034 L309.588,254.454 L309.974,254.651 L309.974,254.651 C309.98,254.654 309.987,254.658 309.994,254.661 L309.994,254.661 L310.478,254.898 L311.446,255.342 L312.446,255.763 L313.477,256.158 L314.538,256.525 L315.629,256.862 L316.748,257.168 L317.897,257.441 L319.074,257.678 L320.277,257.878 L321.509,258.038 L322.767,258.156 L324.051,258.23 L325.361,258.259 L326.698,258.238 L328.06,258.167 L329.448,258.042 L330.862,257.86 L332.3,257.619 L333.764,257.316 L335.253,256.947 L336.766,256.51 L338.304,256.001 L339.864,255.418 L341.447,254.756 L343.049,254.013 L344.67,253.186 L346.306,252.274 L347.954,251.273 L349.61,250.185 L351.27,249.007 L352.86,247.797 L353.554,247.243 L353.554,247.243 C353.628,247.183 353.702,247.122 353.775,247.06 L353.775,247.06 L354.425,246.489 L355.354,245.576 L356.183,244.647 L356.91,243.725 L357.545,242.819 L358.1,241.934 L358.588,241.067 L359.021,240.212 L359.408,239.365 L359.757,238.52 L360.072,237.675 L360.358,236.827 L360.617,235.971 L360.86,235.08 L361.177,233.748 L361.523,231.969 L361.799,230.144 L362.008,228.278 L362.155,226.373 L362.24,224.436 L362.267,222.476 L362.237,220.499 L362.15,218.513 L362.009,216.528 L361.814,214.551 L361.566,212.592 L361.267,210.659 L360.916,208.761 L360.514,206.909 L360.063,205.11 L359.562,203.374 L359.012,201.71 L358.412,200.126 L357.767,198.643 L357.252,197.597 L356.889,196.927 L356.513,196.283 L356.123,195.669 L355.719,195.084 L355.3,194.529 L354.865,194.008 L354.413,193.519 L353.943,193.065 L353.472,192.662 L353.26,192.497 L353.26,192.497 C353.243,192.484 353.227,192.472 353.21,192.46 L353.21,192.46 L352.762,192.148 L351.877,191.627 L350.927,191.183 L349.919,190.812 L348.86,190.512 L347.752,190.278 L346.604,190.108 L345.418,190 L344.199,189.951 L342.954,189.96 L341.685,190.023 L340.397,190.141 L339.095,190.311 L337.782,190.531 L336.461,190.801 L335.137,191.121 L333.813,191.489 L332.491,191.906 L331.173,192.373 L329.86,192.891 L328.553,193.463 L327.253,194.093 L325.958,194.788 L324.666,195.557 L323.375,196.409 L322.089,197.36 L320.812,198.424 L319.563,199.609 L318.374,200.913 L317.294,202.309 L316.373,203.754 L315.724,205.015 L315.564,205.383 L315.564,205.383 C315.523,205.477 315.486,205.57 315.451,205.661 L315.451,205.661 L315.249,206.219 L314.985,207.093 L314.795,207.924 L314.664,208.724 L314.586,209.501 L314.552,210.26 L314.558,211.005 L314.605,211.767 L314.738,212.87 L315.017,214.285 L315.406,215.672 L315.895,217.027 L316.475,218.339 L317.137,219.6 L317.875,220.797 L318.682,221.92 L319.541,222.945 L320.22,223.645 L320.697,224.085 L321.188,224.497 L321.694,224.877 L322.216,225.225 L322.733,225.525 L322.96,225.644 L322.96,225.644 C322.977,225.653 322.994,225.661 323.011,225.669 L323.011,225.669 L323.289,225.798 L323.831,226.009 L324.659,226.241 L325.757,226.415 L326.877,226.466 L328,226.417 L329.146,226.285 L330.746,226.001 L332.669,225.566 L333.987,225.251 L334.772,225.075 L335.48,224.937 L336.11,224.841 L336.667,224.789 L337.237,224.792 L337.616,224.834 C337.616,224.834 337.616,224.834 337.616,224.834 C339.413,225.03 342.161,223.248 343.754,220.855 C345.347,218.461 345.181,216.362 343.384,216.166 L343.384,216.166" fill="#000000"/>
  </g>
</svg>
