<?xml version="1.0" encoding="UTF-8"?>
<!DOCTYPE svg PUBLIC "-//W3C//DTD SVG 1.1//EN" "http://www.w3.org/Graphics/SVG/1.1/DTD/svg11.dtd">
<svg version="1.1" xmlns="http://www.w3.org/2000/svg" xmlns:xlink="http://www.w3.org/1999/xlink" x="0" y="0" width="330.551" height="137" viewBox="0, 0, 330.551, 137">
  <g id="Layer_1" transform="translate(-120.952, -156)">
    <path d="M129.153,165.038 L129.082,167.845 L129.033,173.516 L129.078,179.189 L129.174,184.843 L129.281,190.478 L129.358,196.093 L129.364,201.683 L129.298,205.852 L129.212,208.615 L129.154,209.988 L129.156,209.961 L129.142,210.228 L129.107,210.763 L129.058,211.35 L128.997,212.002 L128.922,212.713 L128.836,213.48 L128.738,214.301 L128.629,215.174 L128.51,216.094 L128.381,217.061 L128.244,218.07 L128.099,219.122 L127.946,220.212 L127.786,221.34 L127.535,223.097 L127.184,225.547 L126.817,228.109 L126.441,230.766 L126.06,233.502 L125.681,236.303 L125.308,239.152 L124.773,243.477 L124.281,247.83 L123.986,250.727 L123.725,253.589 L123.502,256.41 L123.324,259.172 L123.194,261.863 L123.133,263.832 L123.11,265.118 L123.104,266.37 L123.113,267.595 L123.14,268.791 L123.184,269.956 L123.248,271.087 L123.33,272.183 L123.434,273.245 L123.559,274.268 L123.706,275.251 L123.878,276.194 L124.074,277.095 L124.297,277.951 L124.548,278.762 L124.83,279.527 L125.145,280.243 L125.496,280.907 L125.886,281.519 L126.32,282.075 L126.582,282.359 L126.582,282.359 C126.601,282.38 126.621,282.399 126.641,282.418 L126.641,282.418 L126.855,282.619 L127.432,283.085 L128.109,283.536 L128.855,283.953 L129.667,284.34 L130.543,284.702 L131.482,285.042 L132.482,285.361 L133.542,285.663 L134.66,285.947 L135.834,286.214 L137.062,286.467 L138.341,286.705 L139.671,286.929 L141.049,287.14 L142.472,287.338 L143.938,287.523 L145.446,287.697 L146.991,287.859 L148.574,288.01 L150.189,288.15 L151.837,288.28 L154.358,288.456 L157.808,288.658 L161.346,288.825 L164.945,288.96 L168.587,289.065 L172.252,289.143 L175.919,289.197 L179.569,289.229 L183.182,289.242 L186.736,289.238 L190.213,289.22 L193.592,289.192 L196.853,289.154 L199.21,289.122 L200.734,289.099 L202.216,289.075 L203.654,289.051 L205.046,289.027 L206.391,289.003 L207.683,288.98 L208.921,288.957 L210.104,288.936 L211.228,288.916 L212.288,288.898 L213.285,288.883 L214.215,288.87 L215.075,288.859 L215.862,288.852 L216.573,288.849 L216.894,288.848 L216.894,288.848 C218.817,288.846 221.542,286.898 222.981,284.496 C224.42,282.095 224.028,280.15 222.106,280.152 C222.106,280.152 222.106,280.152 222.106,280.152 L221.762,280.152 L221.03,280.156 L220.227,280.164 L219.356,280.174 L218.417,280.187 L217.413,280.203 L216.347,280.221 L215.221,280.241 L214.039,280.262 L212.8,280.284 L211.509,280.308 L210.168,280.331 L208.779,280.355 L207.345,280.379 L205.868,280.403 L204.352,280.426 L202.008,280.458 L198.764,280.496 L195.404,280.524 L191.95,280.542 L188.42,280.545 L184.837,280.533 L181.219,280.501 L177.587,280.448 L173.963,280.371 L170.366,280.267 L166.817,280.134 L163.337,279.97 L159.941,279.772 L157.465,279.599 L155.855,279.473 L154.279,279.336 L152.742,279.19 L151.242,279.033 L149.786,278.865 L148.374,278.687 L147.01,278.498 L145.696,278.297 L144.436,278.086 L143.232,277.862 L142.088,277.628 L141.005,277.382 L139.989,277.125 L139.04,276.858 L138.164,276.58 L137.362,276.293 L136.639,275.999 L135.999,275.699 L135.444,275.398 L134.978,275.1 L134.574,274.784 L134.359,274.581 L134.418,274.641 L134.306,274.529 L134.033,274.198 L133.769,273.8 L133.517,273.338 L133.28,272.812 L133.059,272.225 L132.854,271.578 L132.668,270.873 L132.499,270.113 L132.35,269.301 L132.219,268.439 L132.106,267.528 L132.012,266.573 L131.936,265.573 L131.877,264.531 L131.835,263.452 L131.809,262.335 L131.8,261.184 L131.806,259.999 L131.826,258.792 L131.884,256.924 L132.007,254.336 L132.18,251.664 L132.395,248.924 L132.65,246.131 L132.937,243.309 L133.419,239.031 L133.948,234.755 L134.317,231.938 L134.693,229.162 L135.071,226.443 L135.446,223.797 L135.812,221.239 L136.164,218.782 L136.416,217.018 L136.577,215.88 L136.732,214.777 L136.88,213.709 L137.02,212.677 L137.152,211.686 L137.275,210.733 L137.388,209.824 L137.492,208.956 L137.584,208.133 L137.665,207.355 L137.734,206.623 L137.79,205.935 L137.831,205.309 L137.844,205.039 L137.844,205.039 C137.845,205.03 137.845,205.021 137.846,205.012 L137.846,205.012 L137.905,203.577 L137.994,200.724 L138.06,196.461 L138.053,190.801 L137.976,185.159 L137.87,179.534 L137.774,173.929 L137.729,168.348 L137.776,162.773 L137.847,159.962 C137.896,158.012 135.989,157.568 133.588,158.969 C131.187,160.371 129.201,163.088 129.153,165.038 L129.153,165.038" fill="#000000"/>
    <path d="M130.158,167.836 L131.508,167.716 L134.175,167.516 L136.841,167.361 L139.522,167.247 L142.214,167.173 L144.917,167.135 L148.999,167.142 L154.463,167.257 L159.942,167.475 L165.436,167.775 L170.936,168.138 L176.434,168.542 L181.921,168.969 L187.393,169.397 L192.838,169.805 L198.253,170.173 L203.629,170.481 L207.636,170.66 L210.296,170.749 L212.937,170.811 L215.564,170.844 L216.881,170.848 L216.881,170.848 C218.798,170.855 221.525,168.914 222.971,166.512 C224.417,164.111 224.036,162.159 222.119,162.152 C222.119,162.152 222.119,162.152 222.119,162.152 L220.852,162.148 L218.284,162.117 L215.696,162.056 L213.093,161.969 L209.15,161.794 L203.828,161.489 L198.448,161.123 L193.017,160.716 L187.545,160.288 L182.036,159.86 L176.5,159.453 L170.944,159.087 L165.374,158.783 L159.797,158.562 L154.227,158.445 L150.058,158.439 L147.275,158.479 L144.495,158.556 L141.719,158.675 L138.946,158.837 L136.194,159.044 L134.842,159.164 C132.818,159.344 130.129,161.43 128.836,163.825 C127.543,166.22 128.135,168.015 130.158,167.836 L130.158,167.836" fill="#000000"/>
    <path d="M128.892,230.848 L164.89,230.848 L200.89,230.848 L200.89,230.848 C202.811,230.849 205.537,228.902 206.978,226.501 C208.419,224.1 208.03,222.152 206.11,222.152 C206.11,222.152 206.11,222.152 206.11,222.152 L170.11,222.152 L134.108,222.152 C132.187,222.152 129.462,224.099 128.021,226.501 C126.581,228.902 126.97,230.849 128.892,230.848 L128.892,230.848" fill="#000000"/>
    <path d="M250.157,168.935 L249.937,172.626 L249.561,180.036 L249.265,187.45 L249.042,194.858 L248.884,202.262 L248.783,209.66 L248.731,217.054 L248.719,224.443 L248.762,235.516 L248.887,250.273 L249.033,265.02 L249.136,279.755 L249.152,287.114 L249.152,287.114 C249.155,289.033 251.105,289.418 253.506,287.975 C255.908,286.531 257.852,283.805 257.848,281.886 C257.848,281.886 257.848,281.886 257.848,281.886 L257.832,274.5 L257.729,259.748 L257.583,245.009 L257.458,230.279 L257.416,219.235 L257.427,211.877 L257.479,204.521 L257.579,197.167 L257.736,189.815 L257.957,182.465 L258.25,175.116 L258.623,167.76 L258.843,164.065 C258.961,162.076 257.112,161.553 254.714,162.897 C252.315,164.242 250.275,166.945 250.157,168.935 L250.157,168.935" fill="#000000"/>
    <path d="M251.871,225.848 L252.511,225.853 L253.765,225.888 L255.047,225.952 L256.37,226.036 L258.423,226.188 L261.24,226.398 L264.125,226.56 L266.332,226.613 L267.829,226.6 L269.319,226.536 L270.816,226.413 L272.326,226.219 L273.851,225.94 L274.687,225.75 L274.687,225.75 C275.555,225.547 276.53,225.043 277.462,224.315 L277.462,224.315 L278.436,223.554 L280.371,222.033 L282.259,220.537 L284.094,219.072 L285.877,217.636 L287.61,216.23 L289.292,214.852 L290.926,213.503 L292.511,212.183 L294.049,210.891 L295.541,209.627 L296.988,208.39 L298.392,207.18 L299.753,205.997 L301.07,204.841 L302.348,203.711 L303.584,202.606 L304.782,201.527 L305.942,200.473 L307.064,199.445 L308.15,198.44 L309.2,197.461 L310.216,196.506 L311.199,195.574 L312.149,194.666 L313.066,193.782 L313.953,192.922 L314.81,192.084 L315.637,191.269 L316.436,190.478 L317.207,189.71 L317.951,188.964 L318.67,188.24 L319.362,187.541 L320.03,186.863 L320.675,186.207 L321.597,185.268 L322.754,184.09 L323.83,183.001 L324.827,182.002 L325.75,181.094 L326.603,180.276 L327.39,179.549 L328.116,178.906 L328.788,178.345 L329.414,177.856 L330.009,177.426 L330.588,177.044 L331.173,176.693 L331.787,176.36 L332.035,176.238 L332.035,176.238 C334.422,175.011 336.566,172.343 336.823,170.278 C337.08,168.214 335.353,167.535 332.965,168.762 L332.253,169.134 L330.995,169.844 L329.762,170.614 L328.56,171.436 L327.395,172.301 L326.264,173.202 L325.166,174.132 L324.095,175.087 L323.038,176.07 L321.985,177.081 L320.924,178.127 L319.842,179.21 L318.728,180.34 L317.567,181.521 L316.658,182.448 L316.033,183.083 L315.39,183.735 L314.728,184.404 L314.048,185.09 L313.345,185.793 L312.621,186.516 L311.872,187.258 L311.098,188.02 L310.299,188.801 L309.471,189.604 L308.614,190.43 L307.729,191.276 L306.813,192.146 L305.864,193.039 L304.881,193.955 L303.864,194.896 L302.811,195.861 L301.722,196.851 L300.595,197.867 L299.429,198.909 L298.223,199.976 L296.975,201.071 L295.685,202.193 L294.352,203.342 L292.975,204.52 L291.551,205.726 L290.082,206.961 L288.565,208.224 L287,209.516 L285.384,210.839 L283.718,212.192 L282,213.576 L280.229,214.991 L278.403,216.437 L276.516,217.921 L275.538,218.685 L278.313,217.25 L277.847,217.363 L276.724,217.578 L275.533,217.738 L274.285,217.846 L272.992,217.904 L271.68,217.919 L269.641,217.872 L266.847,217.716 L264.029,217.506 L261.925,217.351 L260.526,217.262 L259.134,217.194 L257.772,217.157 L257.129,217.152 C255.217,217.138 252.489,219.073 251.037,221.474 C249.585,223.876 249.958,225.834 251.871,225.848 L251.871,225.848" fill="#000000"/>
    <path d="M271.343,225.013 L271.814,225.963 L272.787,227.909 L273.796,229.903 L274.84,231.937 L275.918,234.002 L277.029,236.09 L278.173,238.192 L279.347,240.299 L280.553,242.405 L281.788,244.498 L283.053,246.573 L284.345,248.619 L285.666,250.629 L287.013,252.594 L288.387,254.508 L289.787,256.359 L290.502,257.267 L290.502,257.267 C290.503,257.267 290.503,257.268 290.503,257.268 L290.503,257.268 L291.109,258.036 L292.295,259.538 L293.447,260.994 L294.564,262.404 L295.647,263.768 L296.697,265.089 L297.715,266.365 L298.7,267.598 L299.653,268.788 L300.576,269.938 L301.468,271.046 L302.33,272.115 L303.162,273.144 L303.966,274.135 L304.742,275.089 L305.49,276.005 L306.21,276.885 L306.904,277.73 L307.573,278.541 L308.215,279.316 L308.832,280.06 L309.426,280.771 L309.995,281.45 L310.541,282.098 L311.065,282.717 L311.566,283.306 L312.046,283.866 L312.505,284.399 L312.944,284.906 L313.362,285.385 L313.761,285.839 L314.142,286.269 L314.504,286.675 L314.849,287.058 L315.177,287.419 L315.489,287.758 L315.926,288.227 L316.456,288.784 L316.934,289.271 L317.361,289.693 L317.744,290.056 L318.087,290.366 L318.395,290.63 L318.676,290.855 L318.933,291.046 L319.17,291.208 L319.481,291.397 L319.839,291.585 L319.991,291.659 L319.991,291.659 C321.409,292.359 324.129,291.064 326.067,288.767 C328.005,286.47 328.427,284.04 327.009,283.341 C327.009,283.341 327.009,283.341 327.009,283.341 L326.907,283.291 L326.714,283.194 L326.537,283.091 L326.397,282.998 L326.225,282.872 L326.015,282.706 L325.764,282.492 L325.469,282.226 L325.126,281.902 L324.732,281.513 L324.283,281.055 L323.772,280.52 L323.348,280.065 L323.046,279.736 L322.727,279.385 L322.39,279.011 L322.035,278.614 L321.662,278.192 L321.269,277.745 L320.856,277.272 L320.424,276.773 L319.97,276.246 L319.495,275.691 L318.998,275.107 L318.479,274.494 L317.937,273.851 L317.372,273.176 L316.782,272.47 L316.168,271.731 L315.529,270.958 L314.864,270.152 L314.173,269.311 L313.455,268.434 L312.71,267.521 L311.937,266.571 L311.136,265.583 L310.305,264.557 L309.445,263.491 L308.555,262.385 L307.635,261.238 L306.684,260.05 L305.7,258.819 L304.684,257.545 L303.636,256.227 L302.555,254.865 L301.439,253.457 L300.289,252.003 L299.104,250.502 L298.497,249.732 L298.498,249.733 L297.817,248.87 L296.457,247.074 L295.12,245.212 L293.804,243.293 L292.511,241.326 L291.243,239.319 L290,237.282 L288.784,235.221 L287.596,233.147 L286.436,231.066 L285.306,228.989 L284.206,226.923 L283.138,224.876 L282.102,222.858 L281.099,220.876 L280.13,218.939 L279.657,217.987 C279.657,217.987 279.657,217.987 279.657,217.987 C278.954,216.572 276.522,216.998 274.226,218.938 C271.93,220.879 270.639,223.599 271.343,225.013 L271.343,225.013" fill="#000000"/>
    <path d="M408.587,167.154 L407.416,167.108 L405.127,167.029 L402.902,166.974 L400.732,166.956 L398.606,166.986 L396.513,167.077 L394.44,167.241 L392.376,167.493 L390.306,167.849 L388.218,168.324 L386.099,168.938 L383.939,169.71 L382.241,170.422 L381.073,170.968 L379.941,171.542 L378.798,172.167 L377.646,172.842 L376.484,173.569 L375.316,174.347 L374.142,175.176 L373.502,175.647 L373.502,175.647 C373.458,175.68 373.413,175.713 373.37,175.747 L373.37,175.747 L372.704,176.256 L371.164,177.5 L369.59,178.868 L368.066,180.292 L366.593,181.767 L365.176,183.285 L363.815,184.842 L362.509,186.435 L361.261,188.055 L360.069,189.701 L358.932,191.369 L357.848,193.057 L356.817,194.761 L355.838,196.481 L354.909,198.214 L354.028,199.959 L353.195,201.713 L352.41,203.476 L351.669,205.245 L350.974,207.02 L350.324,208.797 L349.717,210.578 L349.153,212.358 L348.633,214.137 L348.155,215.913 L347.72,217.684 L347.327,219.448 L346.976,221.203 L346.667,222.948 L346.4,224.681 L346.175,226.399 L345.992,228.1 L345.914,228.964 L345.914,228.964 C345.912,228.984 345.911,229.004 345.909,229.024 L345.909,229.024 L345.884,229.385 L345.848,230.276 L345.844,231.251 L345.87,232.282 L345.925,233.368 L346.007,234.51 L346.116,235.707 L346.251,236.956 L346.412,238.251 L346.598,239.59 L346.809,240.969 L347.044,242.382 L347.303,243.825 L347.586,245.293 L348.052,247.526 L348.752,250.55 L349.542,253.593 L350.416,256.61 L351.128,258.839 L351.63,260.3 L352.149,261.725 L352.687,263.117 L353.245,264.471 L353.823,265.781 L354.421,267.045 L355.038,268.255 L355.674,269.409 L356.331,270.5 L356.675,271.034 L356.675,271.034 C356.683,271.045 356.69,271.056 356.698,271.067 L356.698,271.067 L356.996,271.503 L357.689,272.423 L358.465,273.344 L359.309,274.247 L360.218,275.132 L361.189,276 L362.22,276.85 L363.307,277.681 L364.448,278.493 L365.641,279.285 L366.881,280.056 L368.168,280.805 L369.498,281.531 L370.868,282.233 L372.276,282.91 L373.719,283.56 L375.194,284.182 L376.699,284.776 L378.23,285.34 L379.786,285.872 L381.363,286.372 L382.959,286.837 L384.571,287.268 L386.198,287.662 L387.834,288.018 L389.481,288.336 L391.132,288.612 L392.787,288.846 L394.444,289.037 L396.101,289.184 L397.753,289.283 L399.402,289.334 L400.244,289.341 L400.244,289.341 C400.258,289.341 400.271,289.341 400.285,289.341 L400.285,289.341 L400.732,289.338 L401.694,289.314 L403.171,289.23 L405.184,289.033 L407.247,288.74 L409.331,288.354 L411.422,287.877 L413.512,287.312 L415.589,286.66 L417.645,285.919 L419.673,285.088 L421.668,284.161 L423.185,283.376 L424.208,282.802 L425.178,282.22 L426.141,281.603 L427.095,280.947 L428.042,280.25 L428.98,279.506 L429.906,278.712 L430.816,277.865 L431.703,276.963 L432.225,276.391 L432.225,276.391 C432.285,276.324 432.345,276.257 432.403,276.189 L432.403,276.189 L432.913,275.591 L434.14,274.058 L435.357,272.4 L436.486,270.727 L437.535,269.041 L438.513,267.346 L439.426,265.645 L440.278,263.943 L441.076,262.242 L441.822,260.544 L442.518,258.857 L443.168,257.182 L443.772,255.527 L444.334,253.894 L444.853,252.29 L445.331,250.721 L445.561,249.931 L445.561,249.931 C445.564,249.919 445.567,249.908 445.57,249.897 L445.57,249.897 L445.891,248.764 L446.513,246.487 L447.099,244.234 L447.642,242.015 L448.141,239.83 L448.594,237.676 L448.999,235.551 L449.355,233.455 L449.659,231.385 L449.91,229.342 L450.107,227.322 L450.247,225.325 L450.328,223.349 L450.35,221.393 L450.31,219.457 L450.208,217.538 L450.041,215.635 L449.808,213.747 L449.508,211.872 L449.14,210.008 L448.703,208.154 L448.195,206.309 L447.614,204.469 L446.961,202.634 L446.234,200.801 L445.432,198.968 L444.553,197.134 L443.596,195.296 L442.56,193.451 L441.444,191.599 L440.246,189.737 L438.965,187.862 L438.288,186.912 L438.288,186.912 C438.285,186.908 438.282,186.903 438.279,186.899 L438.279,186.899 L437.852,186.314 L436.985,185.157 L436.114,184.037 L435.241,182.958 L434.367,181.919 L433.491,180.92 L432.614,179.96 L431.734,179.038 L430.852,178.155 L429.967,177.309 L429.08,176.5 L428.189,175.728 L426.854,174.643 L425.06,173.317 L423.243,172.123 L421.409,171.063 L419.555,170.133 L417.681,169.329 L415.784,168.648 L413.863,168.085 L411.918,167.638 L409.949,167.302 L408.923,167.171 L408.923,167.171 C408.823,167.158 408.718,167.152 408.609,167.152 L408.609,167.152 L408.485,167.152 L408.485,167.152 C406.564,167.151 403.839,169.097 402.397,171.499 C400.956,173.9 401.344,175.847 403.265,175.848 L403.391,175.848 L403.077,175.829 L403.921,175.934 L405.662,176.224 L407.391,176.615 L409.108,177.112 L410.818,177.72 L412.521,178.444 L414.217,179.29 L415.908,180.262 L417.596,181.365 L419.286,182.611 L420.554,183.639 L421.394,184.366 L422.233,185.13 L423.072,185.931 L423.911,186.77 L424.75,187.648 L425.589,188.565 L426.428,189.522 L427.268,190.52 L428.108,191.558 L428.948,192.637 L429.793,193.763 L430.221,194.351 L430.212,194.338 L430.857,195.242 L432.093,197.05 L433.246,198.84 L434.317,200.614 L435.307,202.374 L436.218,204.12 L437.052,205.856 L437.811,207.583 L438.495,209.303 L439.108,211.018 L439.65,212.729 L440.123,214.438 L440.53,216.149 L440.871,217.862 L441.148,219.581 L441.364,221.306 L441.519,223.042 L441.615,224.789 L441.654,226.552 L441.637,228.331 L441.565,230.129 L441.44,231.951 L441.262,233.798 L441.034,235.672 L440.756,237.576 L440.429,239.513 L440.054,241.485 L439.633,243.495 L439.166,245.545 L438.655,247.636 L438.101,249.773 L437.501,251.968 L437.18,253.103 L437.189,253.069 L436.996,253.737 L436.572,255.134 L436.115,256.551 L435.625,257.982 L435.103,259.418 L434.55,260.85 L433.968,262.269 L433.359,263.665 L432.723,265.032 L432.065,266.357 L431.39,267.629 L430.701,268.84 L430.004,269.978 L429.307,271.034 L428.618,271.996 L427.86,272.96 L427.347,273.561 L427.525,273.359 L427.545,273.347 L427.368,273.547 L427.136,273.779 L426.848,274.041 L426.502,274.327 L426.099,274.634 L425.642,274.957 L425.133,275.29 L424.577,275.63 L424.022,275.949 L423.083,276.448 L421.656,277.124 L420.119,277.765 L418.497,278.358 L416.81,278.896 L415.079,279.371 L413.322,279.778 L411.557,280.111 L409.801,280.367 L408.052,280.543 L406.762,280.619 L405.913,280.642 L405.465,280.645 L405.506,280.645 L404.785,280.64 L403.287,280.596 L401.77,280.507 L400.24,280.373 L398.699,280.197 L397.152,279.979 L395.601,279.721 L394.051,279.424 L392.504,279.088 L390.964,278.716 L389.433,278.308 L387.916,277.866 L386.415,277.392 L384.934,276.886 L383.475,276.35 L382.042,275.785 L380.637,275.194 L379.265,274.576 L377.928,273.935 L376.628,273.271 L375.37,272.585 L374.156,271.879 L372.988,271.156 L371.872,270.416 L370.808,269.661 L369.801,268.893 L368.854,268.115 L367.969,267.327 L367.15,266.533 L366.399,265.735 L365.72,264.936 L365.103,264.12 L364.802,263.683 L364.825,263.716 L364.528,263.259 L363.927,262.264 L363.338,261.2 L362.762,260.073 L362.2,258.887 L361.653,257.648 L361.121,256.361 L360.607,255.033 L360.109,253.668 L359.631,252.279 L358.948,250.144 L358.101,247.228 L357.336,244.283 L356.654,241.345 L356.2,239.174 L355.927,237.757 L355.677,236.366 L355.451,235.009 L355.249,233.691 L355.071,232.416 L354.919,231.191 L354.791,230.022 L354.69,228.916 L354.614,227.88 L354.564,226.921 L354.54,226.051 L354.54,225.281 L354.565,224.59 L354.591,224.226 L354.586,224.286 L354.652,223.54 L354.816,221.998 L355.018,220.444 L355.257,218.881 L355.533,217.31 L355.846,215.736 L356.195,214.159 L356.58,212.584 L357,211.012 L357.456,209.447 L357.945,207.892 L358.468,206.349 L359.025,204.82 L359.613,203.31 L360.233,201.82 L360.883,200.354 L361.561,198.915 L362.267,197.506 L363,196.13 L363.758,194.788 L364.539,193.486 L365.342,192.224 L366.165,191.004 L367.006,189.83 L367.866,188.701 L368.741,187.619 L369.634,186.584 L370.543,185.595 L371.47,184.651 L372.417,183.751 L373.386,182.893 L374.461,182.015 L375.13,181.503 L374.998,181.603 L375.325,181.359 L376.07,180.826 L376.803,180.33 L377.531,179.868 L378.254,179.437 L378.977,179.035 L379.702,178.661 L380.385,178.332 L381.458,177.866 L382.988,177.302 L384.573,176.828 L386.217,176.442 L387.926,176.14 L389.701,175.918 L391.547,175.767 L393.468,175.682 L395.467,175.652 L397.549,175.669 L399.721,175.722 L401.989,175.801 L403.163,175.846 C403.163,175.846 403.163,175.846 403.163,175.846 C405.039,175.918 407.775,174.031 409.273,171.631 C410.771,169.231 410.464,167.226 408.587,167.154 L408.587,167.154" fill="#000000"/>
  </g>
</svg>
