<?xml version="1.0" encoding="UTF-8"?>
<!DOCTYPE svg PUBLIC "-//W3C//DTD SVG 1.1//EN" "http://www.w3.org/Graphics/SVG/1.1/DTD/svg11.dtd">
<svg version="1.1" xmlns="http://www.w3.org/2000/svg" xmlns:xlink="http://www.w3.org/1999/xlink" x="0" y="0" width="248.023" height="108.207" viewBox="0, 0, 248.023, 108.207">
  <g id="Layer_1" transform="translate(-168.18, -186.821)">
    <path d="M171.856,260.934 L171.684,261.469 L171.337,262.656 L171.032,263.86 L170.783,265.037 L170.589,266.185 L170.451,267.304 L170.366,268.394 L170.333,269.454 L170.353,270.485 L170.423,271.486 L170.542,272.458 L170.709,273.4 L170.923,274.314 L171.183,275.199 L171.486,276.056 L171.833,276.886 L172.221,277.688 L172.651,278.465 L173.119,279.215 L173.627,279.941 L174.172,280.642 L174.753,281.319 L175.37,281.973 L176.021,282.604 L176.707,283.213 L177.425,283.8 L178.176,284.366 L178.957,284.911 L179.77,285.436 L180.612,285.941 L181.483,286.427 L182.383,286.894 L183.31,287.342 L184.264,287.773 L185.244,288.185 L186.251,288.581 L187.281,288.959 L188.336,289.32 L189.415,289.665 L190.517,289.995 L192.201,290.457 L194.526,291.022 L196.938,291.53 L199.424,291.982 L201.979,292.38 L204.598,292.725 L207.275,293.022 L210.005,293.27 L212.783,293.473 L215.604,293.632 L218.463,293.75 L221.354,293.828 L224.271,293.869 L227.211,293.874 L230.165,293.845 L233.132,293.784 L237.583,293.638 L243.51,293.35 L247.935,293.072 L250.861,292.86 L253.755,292.63 L256.618,292.384 L259.443,292.123 L262.225,291.849 L264.96,291.565 L267.642,291.271 L270.266,290.971 L272.825,290.665 L275.315,290.355 L277.731,290.045 L280.067,289.734 L282.318,289.426 L284.477,289.122 L286.54,288.824 L288.502,288.534 L290.357,288.254 L292.099,287.985 L293.724,287.73 L295.225,287.491 L296.267,287.322 L296.921,287.216 L297.54,287.114 L298.124,287.018 L298.673,286.927 L299.185,286.842 L299.428,286.801 L299.428,286.801 C299.433,286.801 299.438,286.8 299.443,286.799 L299.443,286.799 L300.927,286.546 L303.882,286.015 L308.206,285.198 L312.445,284.395 L315.242,283.891 L318.048,283.424 L320.884,283.005 L322.301,282.82 L322.236,282.828 L323.474,282.69 L325.894,282.484 L328.39,282.287 L330.338,282.092 L331.685,281.917 L332.393,281.807 L332.393,281.807 C332.862,281.733 333.375,281.562 333.906,281.302 L333.906,281.302 L334.059,281.227 L335.134,280.6 L336.929,279.133 L338.675,276.908 L339.479,275 L339.61,273.832 L339.506,273.101 L339.326,272.573 L339.112,272.138 L338.876,271.745 L338.621,271.369 L338.35,270.997 L338.066,270.622 L337.77,270.239 L337.311,269.643 L336.688,268.795 L336.089,267.892 L335.68,267.187 L335.435,266.708 L335.206,266.204 L335.005,265.688 L334.834,265.162 L334.698,264.627 L334.597,264.085 L334.536,263.539 L334.515,262.992 L334.536,262.446 L334.598,261.905 L334.701,261.37 L334.751,261.18 L334.713,261.334 L334.791,261.04 L334.911,260.686 L335.123,260.198 L335.466,259.571 L335.846,258.991 L336.302,258.364 L336.833,257.69 L337.428,256.982 L338.072,256.251 L338.744,255.51 L339.253,254.953 L339.608,254.564 L339.97,254.164 L340.339,253.747 L340.722,253.302 L341.125,252.81 L341.562,252.238 L342.044,251.54 L342.563,250.646 L343.044,249.51 L343.281,248.228 L343.058,247.126 L342.446,246.472 L341.706,246.205 L341.221,246.154 L341.221,246.154 C341.171,246.152 341.12,246.151 341.068,246.152 L341.068,246.152 L340.676,246.158 L339.769,246.206 L338.396,246.36 L336.584,246.686 L334.806,247.105 L333.125,247.554 L331.553,247.98 L330.091,248.341 L328.729,248.607 L328.147,248.687 L328.233,248.675 L326.875,248.84 L324.16,249.137 L321.414,249.399 L318.627,249.63 L315.808,249.832 L312.963,250.005 L308.652,250.218 L302.88,250.423 L297.124,250.552 L292.847,250.609 L290.025,250.632 L287.229,250.646 L284.471,250.651 L283.109,250.652 L283.109,250.652 C283.104,250.652 283.1,250.652 283.095,250.652 L283.095,250.652 L278.66,250.673 L269.76,250.81 L260.874,250.994 L254.227,251.106 L249.807,251.146 L247.603,251.152 L247.603,251.152 C247.602,251.152 247.602,251.152 247.601,251.152 L247.601,251.152 L245.528,251.158 L241.356,251.201 L235.097,251.337 L226.762,251.617 L218.447,251.968 L210.167,252.341 L201.93,252.691 L195.79,252.908 L191.717,253.022 L187.656,253.103 L183.61,253.146 L181.602,253.152 L181.602,253.152 C180.751,253.154 179.697,253.545 178.638,254.251 L178.638,254.251 L175.64,256.249 L175.64,256.249 C173.247,257.844 171.468,260.593 171.667,262.388 C171.866,264.183 173.967,264.346 176.36,262.751 L179.362,260.749 L176.398,261.848 L178.452,261.842 L182.55,261.798 L186.657,261.716 L190.774,261.601 L196.957,261.382 L205.21,261.032 L213.472,260.659 L221.736,260.31 L230.001,260.032 L236.195,259.897 L240.323,259.854 L242.399,259.848 L242.397,259.848 L244.639,259.842 L249.103,259.802 L255.772,259.689 L264.628,259.506 L273.467,259.37 L277.905,259.348 L277.892,259.348 L279.263,259.348 L282.037,259.342 L284.851,259.328 L287.703,259.305 L292.032,259.247 L297.865,259.116 L303.722,258.907 L308.102,258.691 L311.013,258.513 L313.905,258.306 L316.774,258.067 L319.614,257.795 L322.406,257.489 L323.767,257.325 L323.767,257.325 C323.796,257.321 323.824,257.317 323.853,257.313 L323.853,257.313 L324.831,257.165 L326.587,256.811 L328.243,256.399 L329.79,255.98 L331.23,255.593 L332.577,255.264 L333.895,255.013 L334.875,254.893 L335.538,254.854 L335.932,254.848 L335.779,254.846 L335.512,254.804 L335.111,254.609 L334.715,254.096 L334.59,253.203 L334.816,252.194 L335.182,251.394 L335.491,250.898 L335.672,250.654 L335.727,250.594 L335.673,250.666 L335.529,250.838 L335.31,251.086 L335.029,251.398 L334.693,251.766 L334.091,252.424 L333.178,253.437 L332.168,254.598 L331.097,255.903 L330.005,257.344 L328.935,258.915 L327.941,260.599 L327.117,262.284 L326.623,263.551 L326.366,264.371 L326.287,264.666 L326.287,264.666 C326.273,264.718 326.261,264.769 326.249,264.82 L326.249,264.82 L326.109,265.452 L325.933,266.517 L325.841,267.522 L325.825,268.469 L325.875,269.363 L325.983,270.205 L326.14,271.001 L326.341,271.753 L326.579,272.465 L326.847,273.138 L327.141,273.775 L327.461,274.391 L327.96,275.242 L328.636,276.255 L329.295,277.151 L329.758,277.752 L330.04,278.117 L330.294,278.45 L330.512,278.747 L330.689,279.003 L330.817,279.204 L330.89,279.326 L330.911,279.319 L330.914,279.076 L331.047,278.36 L331.74,276.872 L333.252,275.035 L334.682,273.924 L335.25,273.621 L335.094,273.698 L336.607,273.193 L336.083,273.276 L334.947,273.427 L333.138,273.609 L330.599,273.81 L328.006,274.033 L326.764,274.172 L326.764,274.172 C326.742,274.174 326.721,274.177 326.699,274.18 L326.699,274.18 L325.164,274.381 L322.193,274.821 L319.283,275.306 L316.418,275.823 L312.18,276.625 L307.927,277.429 L305.043,277.948 L303.557,278.201 L303.572,278.199 L303.332,278.239 L302.824,278.323 L302.281,278.413 L301.703,278.508 L301.092,278.608 L300.447,278.713 L299.42,278.88 L297.938,279.116 L296.334,279.368 L294.614,279.633 L292.782,279.91 L290.845,280.196 L288.807,280.491 L286.675,280.791 L284.453,281.095 L282.147,281.402 L279.762,281.709 L277.304,282.014 L274.778,282.316 L272.19,282.613 L269.544,282.903 L266.847,283.183 L264.103,283.453 L261.319,283.71 L258.5,283.953 L255.651,284.179 L252.783,284.387 L248.447,284.661 L242.613,284.945 L238.234,285.089 L235.33,285.149 L232.438,285.177 L229.566,285.173 L226.719,285.134 L223.903,285.058 L221.122,284.944 L218.383,284.79 L215.69,284.595 L213.051,284.355 L210.469,284.071 L207.951,283.739 L205.502,283.359 L203.128,282.929 L200.833,282.448 L198.618,281.911 L197.012,281.472 L195.977,281.163 L194.967,280.84 L193.981,280.504 L193.021,280.152 L192.089,279.787 L191.183,279.407 L190.306,279.012 L189.457,278.603 L188.637,278.179 L187.846,277.74 L187.087,277.286 L186.358,276.817 L185.661,276.333 L184.996,275.835 L184.365,275.321 L183.766,274.793 L183.201,274.249 L182.671,273.691 L182.175,273.119 L181.714,272.531 L181.29,271.931 L180.901,271.315 L180.548,270.685 L180.231,270.041 L179.951,269.383 L179.708,268.712 L179.502,268.026 L179.333,267.328 L179.2,266.614 L179.106,265.888 L179.048,265.147 L179.028,264.392 L179.045,263.622 L179.1,262.836 L179.193,262.035 L179.325,261.215 L179.496,260.379 L179.706,259.523 L179.972,258.603 L180.144,258.066 C180.144,258.066 180.144,258.066 180.144,258.066 C180.871,255.799 179.604,254.603 177.315,255.395 C175.026,256.187 172.582,258.667 171.856,260.934 L171.856,260.934" fill="#000000"/>
    <path d="M205.055,259.241 L205.322,259.028 L206.107,258.366 L207.279,257.284 L208.773,255.736 L210.204,254.064 L211.519,252.357 L212.737,250.619 L213.877,248.855 L214.956,247.061 L215.985,245.239 L216.975,243.39 L217.931,241.515 L218.86,239.619 L220.202,236.764 L221.936,232.911 L223.62,229.062 L225.258,225.294 L226.46,222.567 L227.247,220.82 L228.028,219.127 L228.8,217.504 L229.562,215.964 L230.311,214.518 L231.043,213.183 L231.752,211.972 L232.427,210.907 L233.054,210.008 L233.609,209.299 L234.062,208.803 L234.096,208.79 L233.799,209.088 L234.087,208.81 L234.296,208.648 L234.487,208.529 L234.814,208.325 L235.272,208.058 L235.851,207.746 L236.541,207.404 L237.329,207.043 L238.205,206.672 L239.163,206.296 L240.193,205.92 L241.291,205.546 L242.451,205.176 L243.668,204.812 L244.939,204.456 L246.26,204.108 L247.626,203.768 L249.035,203.438 L250.485,203.117 L251.972,202.805 L253.493,202.504 L255.046,202.212 L257.437,201.791 L260.709,201.267 L264.056,200.783 L267.469,200.337 L270.929,199.93 L274.416,199.56 L277.917,199.227 L281.411,198.929 L284.882,198.665 L288.312,198.435 L291.685,198.237 L294.983,198.071 L298.188,197.935 L300.518,197.853 L302.033,197.806 L303.518,197.767 L304.969,197.735 L306.382,197.709 L307.756,197.689 L309.089,197.677 L310.378,197.67 L311.622,197.669 L312.818,197.675 L313.963,197.686 L315.055,197.703 L316.093,197.726 L317.075,197.753 L317.996,197.786 L318.855,197.824 L319.255,197.845 L319.25,197.844 L320.309,197.901 L322.399,198.012 L324.444,198.119 L326.446,198.223 L328.405,198.324 L330.323,198.422 L332.199,198.516 L334.036,198.607 L335.833,198.695 L337.591,198.78 L339.312,198.863 L340.994,198.942 L342.641,199.018 L344.251,199.092 L346.602,199.197 L349.619,199.328 L352.506,199.448 L355.271,199.559 L357.919,199.66 L360.456,199.753 L362.887,199.836 L365.22,199.912 L367.461,199.979 L369.615,200.04 L371.687,200.093 L373.686,200.14 L375.616,200.18 L377.483,200.216 L379.293,200.245 L381.053,200.27 L382.768,200.291 L385.269,200.315 L388.504,200.335 L391.669,200.345 L394.812,200.348 L396.39,200.348 L396.39,200.348 C396.39,200.348 396.391,200.348 396.392,200.348 L396.392,200.348 L396.445,200.348 L396.511,200.348 L396.523,200.348 L401.706,191.652 L401.576,191.652 L401.289,191.652 L400.916,191.652 L400.503,191.652 L400.099,191.652 L399.75,191.652 L399.61,191.652 L399.61,191.652 C399.596,191.652 399.581,191.652 399.567,191.652 L399.567,191.652 L399.145,191.658 L398.191,191.711 L397.213,191.816 L396.254,191.97 L395.316,192.166 L394.405,192.395 L393.134,192.769 L391.529,193.308 L390.04,193.831 L388.686,194.277 L387.76,194.538 L387.174,194.675 L386.903,194.731 L386.903,194.731 C386.889,194.733 386.876,194.736 386.862,194.739 L386.862,194.739 L386.566,194.805 L385.715,195.037 L384.76,195.367 L383.79,195.777 L382.812,196.263 L381.837,196.817 L380.874,197.434 L379.929,198.103 L379.011,198.818 L378.123,199.568 L376.923,200.68 L375.399,202.263 L373.942,203.966 L372.617,205.7 L371.412,207.453 L370.323,209.212 L369.344,210.969 L368.473,212.715 L367.711,214.441 L367.061,216.135 L366.638,217.415 L366.392,218.265 L366.277,218.705 L366.277,218.705 C366.272,218.726 366.266,218.747 366.261,218.768 L366.261,218.768 L366.034,219.701 L365.579,221.696 L365.141,223.765 L364.72,225.88 L364.307,228.036 L363.897,230.228 L363.482,232.449 L363.058,234.691 L362.617,236.949 L362.155,239.213 L361.667,241.475 L361.146,243.726 L360.588,245.957 L359.989,248.159 L359.344,250.32 L358.651,252.43 L357.907,254.476 L357.11,256.446 L356.262,258.326 L355.611,259.632 L355.174,260.447 L354.709,261.268 L354.235,262.056 L353.753,262.81 L353.263,263.529 L352.768,264.212 L352.267,264.859 L351.761,265.471 L351.25,266.047 L350.731,266.593 L350.204,267.111 L349.664,267.603 L349.105,268.076 L348.525,268.53 L347.917,268.97 L347.275,269.398 L346.593,269.816 L345.865,270.224 L345.09,270.62 L344.263,271.003 L343.383,271.371 L342.448,271.719 L341.456,272.047 L340.409,272.349 L339.306,272.624 L338.774,272.741 L338.774,272.741 C336.601,273.226 334.01,275.525 332.987,277.877 C331.963,280.229 332.894,281.743 335.067,281.259 L335.84,281.084 L337.29,280.715 L338.717,280.293 L340.123,279.818 L341.51,279.288 L342.877,278.703 L344.225,278.062 L345.555,277.363 L346.862,276.608 L348.146,275.797 L349.404,274.933 L350.63,274.017 L351.82,273.056 L352.97,272.054 L354.077,271.016 L355.137,269.948 L356.149,268.856 L357.111,267.745 L358.023,266.621 L358.887,265.484 L359.704,264.339 L360.477,263.187 L361.207,262.03 L361.898,260.869 L362.552,259.704 L363.189,258.497 L364.067,256.71 L365.115,254.362 L366.061,252.001 L366.918,249.627 L367.697,247.246 L368.406,244.858 L369.053,242.47 L369.648,240.086 L370.196,237.713 L370.705,235.356 L371.18,233.023 L371.629,230.721 L372.058,228.458 L372.472,226.241 L372.876,224.082 L373.277,221.986 L373.679,219.965 L374.087,218.029 L374.511,216.167 L374.739,215.232 L374.723,215.295 L374.778,215.077 L374.913,214.59 L375.158,213.815 L375.571,212.702 L376.056,211.571 L376.602,210.446 L377.197,209.349 L377.824,208.306 L378.465,207.341 L379.099,206.474 L379.703,205.726 L380.327,205.041 L380.786,204.593 L381.025,204.377 L381.247,204.189 L381.456,204.026 L381.655,203.882 L381.853,203.753 L382.053,203.636 L382.267,203.528 L382.5,203.43 L382.839,203.327 L383.137,203.261 L383.097,203.269 L383.618,203.158 L384.582,202.92 L385.908,202.537 L387.46,202.023 L388.819,201.545 L390.062,201.121 L390.962,200.849 L391.528,200.701 L392.101,200.575 L392.691,200.472 L393.31,200.397 L394.007,200.354 L394.433,200.348 L394.39,200.348 L394.53,200.348 L394.879,200.348 L395.284,200.348 L395.696,200.348 L396.069,200.348 L396.356,200.348 L396.487,200.348 L401.742,191.652 L401.73,191.652 L401.664,191.652 L401.608,191.652 L401.61,191.652 L400.037,191.652 L396.906,191.648 L393.757,191.638 L390.54,191.619 L388.054,191.595 L386.35,191.575 L384.603,191.55 L382.805,191.52 L380.95,191.485 L379.033,191.445 L377.047,191.398 L374.985,191.345 L372.844,191.285 L370.615,191.218 L368.292,191.143 L365.87,191.06 L363.343,190.968 L360.705,190.867 L357.95,190.757 L355.07,190.636 L352.061,190.506 L349.715,190.401 L348.108,190.328 L346.465,190.251 L344.784,190.172 L343.068,190.09 L341.313,190.005 L339.519,189.917 L337.686,189.826 L335.812,189.732 L333.898,189.635 L331.941,189.534 L329.942,189.43 L327.899,189.323 L325.812,189.212 L324.75,189.156 L324.75,189.156 C324.748,189.155 324.746,189.155 324.745,189.155 L324.745,189.155 L324.31,189.133 L323.407,189.094 L322.447,189.059 L321.431,189.031 L320.36,189.008 L319.236,188.99 L318.061,188.979 L316.838,188.973 L315.569,188.974 L314.254,188.981 L312.897,188.994 L311.498,189.013 L310.061,189.04 L308.587,189.073 L307.079,189.113 L305.534,189.16 L303.162,189.244 L299.908,189.382 L296.561,189.551 L293.136,189.752 L289.649,189.986 L286.118,190.255 L282.559,190.559 L278.987,190.899 L275.419,191.278 L271.871,191.696 L268.359,192.155 L264.898,192.657 L261.511,193.201 L259.027,193.638 L257.394,193.945 L255.786,194.265 L254.204,194.597 L252.648,194.942 L251.122,195.301 L249.626,195.673 L248.161,196.061 L246.729,196.464 L245.328,196.885 L243.961,197.323 L242.625,197.781 L241.319,198.263 L240.044,198.769 L238.794,199.306 L237.567,199.88 L236.356,200.498 L235.154,201.172 L233.955,201.917 L232.752,202.753 L231.544,203.7 L230.492,204.633 L230.201,204.912 L230.201,204.912 C230.1,205.01 230.001,205.109 229.904,205.21 L229.904,205.21 L229.079,206.091 L227.83,207.567 L226.702,209.066 L225.662,210.595 L224.685,212.158 L223.753,213.762 L222.855,215.411 L221.98,217.105 L221.124,218.839 L220.281,220.613 L219.448,222.421 L218.619,224.264 L217.391,227.05 L215.763,230.793 L214.136,234.514 L212.496,238.163 L211.254,240.81 L210.432,242.492 L209.612,244.106 L208.797,245.637 L207.992,247.073 L207.204,248.398 L206.442,249.596 L205.721,250.649 L205.058,251.544 L204.47,252.271 L203.901,252.9 L203.497,253.296 L203.216,253.542 L202.945,253.759 C200.615,255.623 199.199,258.361 199.782,259.875 C200.365,261.389 202.726,261.105 205.055,259.241 L205.055,259.241" fill="#000000"/>
    <path d="M393.659,200.336 L394.149,200.293 L394.901,200.288 L395.601,200.355 L396.322,200.49 L397.054,200.695 L397.787,200.969 L398.516,201.312 L399.236,201.721 L399.938,202.193 L400.621,202.725 L401.279,203.313 L401.91,203.953 L402.508,204.639 L403.073,205.369 L403.601,206.137 L404.089,206.938 L404.535,207.768 L404.937,208.621 L405.292,209.493 L405.599,210.378 L405.856,211.27 L406.061,212.163 L406.213,213.051 L406.311,213.926 L406.354,214.78 L406.343,215.605 L406.28,216.389 L406.169,217.121 L406.014,217.784 L405.828,218.363 L405.626,218.837 L405.43,219.188 L405.428,219.16 L405.642,218.805 L405.549,218.951 L405.702,218.706 L405.93,218.397 L406.072,218.222 L406.118,218.161 L406.068,218.192 L405.774,218.41 L405.198,218.806 L404.47,219.272 L403.587,219.805 L402.595,220.374 L401.533,220.958 L400.431,221.543 L399.32,222.116 L398.224,222.668 L397.168,223.191 L396.418,223.559 L395.94,223.792 L395.48,224.017 L395.043,224.23 L394.631,224.432 L394.243,224.623 L394.05,224.72 L394.05,224.72 C391.668,225.906 389.49,228.56 389.187,230.648 C388.883,232.736 390.568,233.467 392.95,232.28 L393.097,232.207 L393.445,232.035 L393.837,231.843 L394.268,231.633 L394.734,231.406 L395.234,231.161 L396.039,230.767 L397.189,230.197 L398.413,229.579 L399.69,228.919 L401.003,228.22 L402.339,227.482 L403.685,226.703 L405.034,225.876 L406.393,224.98 L407.714,224.028 L408.691,223.251 L409.407,222.628 L410.146,221.925 L410.904,221.118 L411.665,220.192 L412.263,219.344 L412.358,219.195 L412.358,219.195 C412.433,219.077 412.505,218.958 412.572,218.84 L412.572,218.84 L413.046,217.977 L413.689,216.606 L414.179,215.293 L414.543,214.028 L414.798,212.801 L414.961,211.603 L415.039,210.427 L415.042,209.27 L414.975,208.129 L414.841,207.003 L414.644,205.894 L414.387,204.801 L414.072,203.728 L413.702,202.677 L413.278,201.65 L412.802,200.65 L412.277,199.681 L411.702,198.746 L411.079,197.849 L410.411,196.993 L409.696,196.183 L408.938,195.422 L408.136,194.715 L407.289,194.065 L406.398,193.478 L405.462,192.958 L404.48,192.511 L403.449,192.143 L402.366,191.861 L401.226,191.674 L400.024,191.593 L398.835,191.62 L398.341,191.664 C396.318,191.844 393.629,193.93 392.336,196.325 C391.043,198.72 391.635,200.516 393.659,200.336 L393.659,200.336" fill="#000000"/>
    <path d="M396,225" fill="#000000"/>
    <path d="M396.109,224.152 L394.471,224.152 L391.28,224.152 L386.647,224.152 L380.573,224.152 L375.94,224.152 L372.749,224.152 L371.11,224.152 L371.11,224.152 C369.189,224.151 366.464,226.097 365.022,228.499 C363.581,230.9 363.969,232.847 365.89,232.848 L367.529,232.848 L370.72,232.848 L375.353,232.848 L381.427,232.848 L386.06,232.848 L389.251,232.848 L390.891,232.848 C390.891,232.848 390.891,232.848 390.891,232.848 C392.812,232.848 395.538,230.901 396.979,228.5 C398.419,226.098 398.03,224.152 396.109,224.152 L396.109,224.152" fill="#000000"/>
    <path d="M245.39,230.307 L245.654,230.266 L246.338,230.136 L247.407,229.868 L248.874,229.388 L250.408,228.761 L251.944,228.013 L253.471,227.159 L254.978,226.211 L256.456,225.18 L257.896,224.078 L259.293,222.912 L260.641,221.69 L261.932,220.419 L263.16,219.104 L264.316,217.752 L265.393,216.365 L266.378,214.95 L266.906,214.118 L266.906,214.118 C266.95,214.048 266.992,213.978 267.033,213.908 L267.033,213.908 L267.103,213.787 L267.332,213.382 L267.476,213.13 L267.495,213.113 L267.272,213.462 L266.416,214.481 L264.214,216.153 L262.133,216.753 L261.401,216.596 L261.177,216.451 L261.061,216.336 L261.142,216.426 L261.152,216.47 L261.139,216.491 L261.141,216.553 L261.149,216.662 L261.156,216.817 L261.157,217.02 L261.147,217.265 L261.109,217.737 L261.016,218.461 L260.804,219.727 L260.551,221.111 L260.378,222.095 L260.224,223.1 L260.11,224.109 L260.062,224.889 L260.057,225.426 L260.083,225.929 L260.144,226.424 L260.248,226.909 L260.407,227.379 L260.635,227.825 L260.947,228.233 L261.196,228.467 L261.196,228.467 C261.227,228.493 261.258,228.518 261.291,228.541 L261.291,228.541 L261.557,228.729 L262.194,229.108 L262.895,229.421 L263.635,229.643 L264.422,229.771 L265.261,229.797 L266.153,229.717 L267.092,229.524 L268.062,229.221 L269.042,228.818 L270.005,228.334 L270.929,227.793 L272.124,226.988 L273.577,225.867 L274.865,224.769 L275.916,223.829 L276.734,223.105 L277.133,222.778 L277.244,222.701 L277.308,222.667 L277.267,222.711 L277.122,222.813 L276.895,222.942 L276.631,223.059 L276.386,223.138 L276.213,223.177 L276.134,223.202 L276.054,223.189 L275.829,223.067 L275.919,223.126 L275.687,222.958 L275.5,222.656 L275.439,222.437 L275.42,222.354 L275.396,222.407 L275.297,222.741 L275.091,223.396 L274.9,224.023 L274.754,224.552 L274.626,225.124 L274.533,225.773 L274.527,226.516 L274.729,227.329 L275.099,227.877 L275.099,227.877 C275.159,227.938 275.224,227.994 275.296,228.044 L275.296,228.044 L275.524,228.204 L276.101,228.538 L276.76,228.809 L277.481,228.984 L278.278,229.052 L279.165,228.992 L280.14,228.787 L281.183,228.427 L282.25,227.923 L283.291,227.308 L284.593,226.371 L286.127,225.039 L287.444,223.713 L288.492,222.56 L289.331,221.608 L289.97,220.905 L290.365,220.521 L290.338,220.582 L290.068,220.822 L289.769,221.049 L289.362,221.3 L288.917,221.509 L288.529,221.634 L288.265,221.684 L288.144,221.705 L288.055,221.689 L287.944,221.635 L288.065,221.701 L288.191,221.789 L288.378,221.959 L288.641,222.266 L288.917,222.651 L289.389,223.388 L289.92,224.214 L290.349,224.808 L290.848,225.386 L291.305,225.814 L291.665,226.088 L292.044,226.324 L292.467,226.532 L292.938,226.705 L293.464,226.834 L294.048,226.912 L294.69,226.929 L295.393,226.878 L296.153,226.751 L296.965,226.545 L297.818,226.259 L298.708,225.895 L299.626,225.454 L300.176,225.164 L300.176,225.164 C300.278,225.108 300.381,225.049 300.484,224.988 L300.484,224.988 L300.758,224.825 L301.936,224.02 L303.183,223.001 L304.239,221.997 L305.448,220.693 L306.771,219.116 L307.834,217.822 L308.399,217.182 L308.59,216.998 L308.705,216.913 L308.667,216.98 L308.476,217.16 L308.189,217.375 L307.833,217.551 L307.442,217.682 L307.519,217.66 L307.089,217.766 L306.467,217.803 L305.946,217.686 L305.585,217.456 L305.378,217.192 L305.268,216.944 L305.221,216.773 L305.197,216.783 L305.149,217.002 L305.065,217.376 L304.897,218.136 L304.728,219.05 L304.636,219.788 L304.609,220.533 L304.684,221.307 L304.865,221.943 L305.086,222.372 L305.358,222.711 L305.712,223.002 L305.992,223.16 L305.992,223.16 C306.031,223.179 306.07,223.197 306.111,223.213 L306.111,223.213 L306.328,223.299 L306.904,223.478 L307.554,223.609 L308.238,223.67 L308.956,223.658 L309.707,223.571 L310.483,223.41 L311.277,223.176 L312.377,222.745 L313.837,222.002 L315.276,221.098 L316.545,220.17 L317.633,219.291 L318.535,218.515 L319.249,217.89 L319.748,217.465 L319.892,217.359 L319.811,217.429 L319.667,217.538 L319.382,217.722 L318.958,217.946 L318.427,218.152 L317.874,218.274 L317.397,218.281 L317.091,218.205 L316.382,217.588 L316.394,217.608 L316.209,217.121 L316.203,217.15 L316.214,217.411 L316.23,217.796 L316.252,218.273 L316.284,218.82 L316.328,219.425 L316.389,220.074 L316.47,220.756 L316.635,221.802 L316.868,222.878 L317.077,223.612 L317.324,224.308 L317.622,224.976 L317.982,225.608 L318.414,226.19 L318.936,226.71 L319.569,227.147 L320.175,227.422 L320.66,227.562 L321.148,227.643 L321.688,227.674 L322.279,227.647 L322.92,227.556 L323.61,227.394 L324.34,227.159 L325.101,226.851 L325.885,226.471 L326.679,226.027 L327.474,225.524 L328.265,224.97 L329.044,224.371 L329.813,223.733 L330.57,223.059 L331.318,222.35 L332.057,221.608 L332.793,220.83 L333.528,220.017 L334.264,219.166 L335.005,218.276 L335.753,217.344 L336.51,216.367 L336.915,215.832 L336.915,215.832 C338.697,213.475 338.836,211.192 337.226,210.732 C335.616,210.273 332.867,211.811 331.085,214.168 C331.085,214.168 331.085,214.168 331.085,214.168 L330.82,214.52 L330.27,215.234 L329.754,215.88 L329.276,216.46 L328.837,216.974 L328.438,217.422 L328.082,217.806 L327.77,218.127 L327.506,218.386 L327.291,218.588 L327.126,218.737 L327.009,218.839 L326.94,218.901 L326.912,218.933 L326.917,218.944 L326.947,218.945 L326.988,218.944 L327.031,218.946 L327.065,218.953 L327.083,218.966 L327.08,218.981 L327.056,218.993 L327.01,218.999 L326.988,219.011 L326.885,218.996 L326.665,218.884 L326.431,218.685 L326.201,218.404 L325.984,218.047 L325.785,217.624 L325.609,217.149 L325.461,216.652 L325.273,215.817 L325.132,214.942 L325.064,214.374 L325.011,213.821 L324.971,213.295 L324.943,212.805 L324.922,212.358 L324.905,211.957 L324.888,211.589 L324.852,211.169 L324.63,210.433 L324.618,210.412 L324.618,210.412 C324.458,210.131 324.218,209.922 323.909,209.795 L323.909,209.795 L323.44,209.652 L322.611,209.598 L321.673,209.751 L320.725,210.074 L319.854,210.492 L319.093,210.94 L318.443,211.38 L317.829,211.838 L317.125,212.406 L316.406,213.021 L315.811,213.543 L315.322,213.97 L314.944,214.293 L314.683,214.513 L314.534,214.649 L314.358,214.783 L314.204,214.869 L314.151,214.902 L314.074,214.935 L313.964,214.965 L313.817,214.986 L313.632,214.986 L313.409,214.958 L313.11,214.875 L312.889,214.787 L313.008,214.84 L313.136,214.924 L313.225,215.026 L313.282,215.129 L313.332,215.276 L313.337,215.416 L313.305,215.407 L313.292,215.261 L313.309,215.029 L313.419,214.412 L313.589,213.639 L313.718,213.043 L313.84,212.368 L313.917,211.593 L313.874,210.776 L313.687,210.153 L313.384,209.699 L312.888,209.331 L312.189,209.131 L311.342,209.146 L310.638,209.294 L310.558,209.318 L310.558,209.318 C310.43,209.355 310.299,209.399 310.167,209.449 L310.167,209.449 L309.219,209.848 L307.776,210.646 L306.46,211.575 L305.326,212.53 L304.366,213.452 L303.504,214.369 L302.515,215.509 L301.537,216.701 L300.826,217.573 L300.493,217.967 L300.506,217.988 L300.694,217.879 L300.791,217.847 L300.516,218.012 L300.824,217.837 L300.782,217.865 L300.571,217.981 L300.403,218.066 L300.266,218.128 L300.15,218.174 L300.045,218.209 L299.939,218.233 L299.827,218.246 L299.707,218.245 L299.576,218.228 L299.435,218.189 L299.286,218.127 L299.13,218.041 L298.989,217.946 L298.751,217.741 L298.41,217.361 L298.074,216.903 L297.54,216.072 L296.965,215.186 L296.508,214.58 L295.979,214.019 L295.517,213.644 L295.178,213.43 L295.056,213.365 L295.056,213.365 C295.02,213.345 294.983,213.327 294.945,213.311 L294.945,213.311 L294.524,213.149 L293.735,212.994 L292.795,213.012 L291.726,213.239 L290.593,213.674 L289.491,214.262 L288.49,214.928 L287.512,215.698 L286.408,216.7 L285.343,217.79 L284.492,218.731 L283.81,219.506 L283.305,220.079 L283.037,220.391 L282.952,220.523 L283.017,220.519 L283.223,220.426 L283.445,220.352 L283.635,220.32 L283.747,220.33 L283.763,220.362 L283.679,220.385 L283.509,220.372 L283.268,220.297 L282.935,220.118 L282.704,219.956 L282.901,220.123 L283.154,220.55 L283.216,221.013 L283.185,221.277 L283.161,221.338 L283.176,221.232 L283.232,221.014 L283.409,220.433 L283.719,219.421 L283.946,218.549 L284.073,217.856 L284.134,217.096 L284.059,216.29 L283.748,215.511 L283.262,214.993 L283.171,214.933 L283.171,214.933 C283.101,214.887 283.026,214.846 282.946,214.811 L282.946,214.811 L282.528,214.65 L281.76,214.49 L280.878,214.485 L279.907,214.649 L278.898,214.971 L277.909,215.413 L276.986,215.926 L276.15,216.467 L275.403,217.007 L274.687,217.57 L273.817,218.302 L272.893,219.12 L272.147,219.791 L271.586,220.289 L271.142,220.664 L270.885,220.862 L270.828,220.914 L270.799,220.95 L270.778,220.983 L270.738,221.02 L270.658,221.063 L270.522,221.101 L270.325,221.12 L270.069,221.102 L269.759,221.031 L269.403,220.892 L268.977,220.649 L268.709,220.459 L268.804,220.533 L268.875,220.617 L268.878,220.662 L268.858,220.668 L268.828,220.628 L268.796,220.537 L268.77,220.394 L268.754,220.203 L268.749,219.995 L268.767,219.575 L268.844,218.853 L268.97,218.017 L269.132,217.091 L269.409,215.571 L269.663,214.009 L269.788,212.958 L269.842,212.186 L269.851,211.655 L269.831,211.127 L269.775,210.604 L269.674,210.092 L269.515,209.596 L269.285,209.127 L269.02,208.754 L268.939,208.664 L268.939,208.664 C268.903,208.623 268.864,208.585 268.823,208.549 L268.823,208.549 L268.505,208.321 L267.579,208.061 L265.201,208.649 L262.592,210.527 L261.328,211.951 L260.705,212.84 L260.34,213.436 L260.129,213.805 L260.039,213.968 L259.967,214.092 L260.094,213.882 L260.01,214.033 L259.638,214.603 L259.188,215.209 L258.668,215.842 L258.085,216.488 L257.449,217.134 L256.769,217.769 L256.055,218.383 L255.317,218.966 L254.567,219.508 L253.812,220.002 L253.061,220.444 L252.32,220.827 L251.593,221.149 L250.833,221.418 L250.264,221.572 L249.876,221.651 L249.61,221.693 C249.61,221.693 249.61,221.693 249.61,221.693 C247.51,222.02 244.863,224.214 243.698,226.593 C242.533,228.972 243.29,230.635 245.39,230.307 L245.39,230.307" fill="#000000"/>
    <path d="M230.735,243.736 L230.859,244.162 L231.174,245.046 L231.555,245.873 L231.991,246.608 L232.48,247.255 L233.022,247.814 L233.615,248.287 L234.255,248.675 L234.939,248.98 L235.662,249.204 L236.418,249.35 L237.2,249.423 L238,249.429 L238.81,249.374 L239.977,249.202 L241.532,248.835 L243.072,248.35 L244.501,247.815 L245.784,247.287 L246.634,246.925 L247.114,246.721 L247.527,246.551 L247.867,246.418 L248.121,246.329 L248.275,246.285 L248.316,246.285 L248.227,246.318 L248.015,246.345 L247.814,246.347 L248.209,246.358 L248.803,246.431 L249.395,246.557 L250.048,246.737 L251.129,247.09 L252.679,247.623 L253.958,248.009 L254.901,248.231 L255.895,248.391 L256.969,248.469 L258.148,248.435 L259.167,248.307 L259.925,248.151 L260.669,247.949 L261.452,247.685 L262.274,247.354 L263.13,246.95 L263.664,246.67 L263.664,246.67 C263.794,246.6 263.925,246.525 264.055,246.445 L264.055,246.445 L264.202,246.356 L265.214,245.653 L266.143,244.897 L266.856,244.256 L267.451,243.695 L267.972,243.197 L268.665,242.543 L269.23,242.044 L269.437,241.885 L269.588,241.786 L269.607,241.798 L269.477,241.906 L269.213,242.065 L268.879,242.209 L268.559,242.279 L268.369,242.283 L268.263,242.265 L268.095,242.206 L268.235,242.263 L268.225,242.291 L268.193,242.31 L268.221,242.388 L268.283,242.535 L268.364,242.751 L268.513,243.201 L268.744,243.922 L268.977,244.546 L269.191,245.007 L269.454,245.449 L269.793,245.877 L270.233,246.27 L270.8,246.597 L271.233,246.756 L271.233,246.756 C271.274,246.769 271.317,246.78 271.361,246.79 L271.361,246.79 L271.638,246.856 L272.274,246.979 L273.239,247.101 L274.534,247.149 L275.861,247.072 L277.178,246.881 L278.467,246.598 L279.712,246.247 L280.894,245.855 L282.494,245.263 L283.946,244.706 L284.769,244.406 L285.504,244.167 L286.156,243.994 L286.744,243.886 L287.29,243.842 L287.474,243.847 L286.888,243.797 L286.942,243.808 L286.556,243.688 L286.553,243.714 L286.713,243.886 L286.948,244.15 L287.232,244.478 L287.723,245.049 L288.461,245.879 L289.268,246.705 L289.919,247.281 L290.39,247.633 L290.878,247.929 L291.435,248.171 L291.867,248.292 L291.867,248.292 C291.927,248.306 291.988,248.317 292.051,248.326 L292.051,248.326 L292.211,248.348 L292.725,248.385 L293.563,248.353 L294.751,248.146 L296.03,247.754 L297.277,247.23 L298.454,246.626 L299.54,245.989 L300.526,245.355 L301.403,244.754 L302.166,244.213 L302.8,243.76 L303.282,243.424 L303.567,243.24 L303.549,243.263 L303.361,243.374 L303.129,243.493 L302.773,243.64 L302.303,243.773 L301.765,243.833 L301.345,243.787 L301.103,243.71 L301.179,243.74 L301.074,243.703 L300.978,243.666 L300.975,243.73 L301.061,243.948 L301.23,244.336 L301.496,244.842 L301.808,245.287 L302.101,245.6 L302.435,245.866 L302.841,246.099 L303.134,246.222 L303.134,246.222 C303.166,246.234 303.199,246.245 303.232,246.255 L303.232,246.255 L303.627,246.378 L304.509,246.6 L305.418,246.757 L306.322,246.845 L307.218,246.87 L308.101,246.84 L309.345,246.718 L310.935,246.466 L312.412,246.189 L313.734,245.969 L314.621,245.874 L315.176,245.849 L315.431,245.848 L315.431,245.848 C317.369,245.82 320.09,243.851 321.508,241.45 C322.927,239.049 322.506,237.125 320.569,237.152 L320.072,237.162 L319.149,237.218 L317.875,237.367 L316.391,237.615 L315.109,237.858 L313.938,238.054 L313.088,238.148 L312.552,238.175 L312.003,238.169 L311.434,238.124 L310.834,238.031 L310.165,237.868 L309.768,237.745 L309.866,237.778 L309.924,237.812 L309.907,237.824 L309.874,237.817 L309.851,237.816 L309.766,237.729 L309.612,237.453 L309.432,237.041 L309.182,236.506 L308.799,235.932 L308.355,235.53 L307.975,235.322 L307.897,235.291 L307.897,235.291 C307.82,235.26 307.74,235.234 307.655,235.213 L307.655,235.213 L307.12,235.139 L306.321,235.192 L305.549,235.381 L304.852,235.641 L304.24,235.926 L303.638,236.253 L302.936,236.68 L302.203,237.168 L301.559,237.619 L300.976,238.036 L300.446,238.414 L299.971,238.745 L299.559,239.021 L299.219,239.238 L298.955,239.397 L298.764,239.509 L298.622,239.594 L298.423,239.668 L298.251,239.698 L298.11,239.697 L297.949,239.674 L298.133,239.708 L298.231,239.752 L298.09,239.714 L297.849,239.581 L297.567,239.381 L297.068,238.949 L296.35,238.218 L295.642,237.423 L295.145,236.845 L294.833,236.485 L294.535,236.152 L294.232,235.841 L293.846,235.521 L293.168,235.216 L293.112,235.203 L293.112,235.203 C292.932,235.164 292.736,235.147 292.526,235.153 L292.526,235.153 L291.833,235.184 L290.617,235.333 L289.43,235.584 L288.292,235.904 L287.219,236.261 L286.214,236.629 L284.877,237.142 L283.625,237.611 L282.867,237.871 L282.138,238.089 L281.414,238.264 L280.678,238.389 L279.91,238.455 L279.064,238.441 L278.392,238.364 L277.92,238.276 L277.639,238.21 L277.767,238.244 L277.856,238.297 L277.814,238.313 L277.736,238.279 L277.637,238.183 L277.526,238.021 L277.421,237.815 L277.246,237.36 L276.998,236.586 L276.78,235.951 L276.589,235.493 L276.342,235.027 L276.01,234.57 L275.556,234.15 L275.047,233.852 L274.905,233.794 L274.905,233.794 C274.851,233.772 274.795,233.752 274.737,233.735 L274.737,233.735 L274.418,233.655 L273.789,233.583 L272.782,233.651 L271.486,233.986 L270.218,234.53 L269.052,235.188 L268.016,235.887 L267.102,236.585 L266.244,237.302 L265.238,238.205 L264.424,238.974 L263.992,239.387 L263.691,239.675 L263.574,239.792 L263.749,239.675 L264.095,239.463 L263.945,239.555 L264.336,239.33 L264.361,239.324 L264.215,239.407 L264.052,239.486 L263.868,239.56 L263.662,239.627 L263.485,239.677 L263.13,239.744 L262.526,239.784 L261.866,239.751 L261.17,239.648 L260.459,239.488 L259.315,239.145 L257.706,238.593 L256.447,238.187 L255.541,237.948 L254.569,237.763 L253.586,237.664 L253.186,237.653 L253.186,237.653 C253.121,237.651 253.054,237.652 252.985,237.655 L252.985,237.655 L252.51,237.693 L251.83,237.813 L251.2,237.979 L250.608,238.17 L250.047,238.375 L249.508,238.588 L248.985,238.804 L248.476,239.02 L247.755,239.328 L246.815,239.72 L245.911,240.07 L245.055,240.361 L244.195,240.587 L243.565,240.696 L243.196,240.733 L242.836,240.743 L242.484,240.725 L242.139,240.675 L241.798,240.588 L241.462,240.457 L241.13,240.277 L240.805,240.041 L240.488,239.738 L240.186,239.364 L239.9,238.908 L239.636,238.364 L239.389,237.691 L239.265,237.264 C238.797,235.66 236.509,235.809 234.153,237.596 C231.798,239.384 230.267,242.133 230.735,243.736 L230.735,243.736" fill="#000000"/>
  </g>
</svg>
